<?xml version='1.0' encoding='utf-8'?>
<svg xmlns="http://www.w3.org/2000/svg" width="200" height="200">
  <rect width="200" height="200" fill="white" />
  <g fill="none" stroke="black" stroke-width="2">
    <path d="M150.0,100.0L149.75923633360986,95.09914298352197L149.0392640201615,90.24548389919359L147.84701678661042,85.48576613727688L146.19397662556435,80.86582838174552L144.09606321741774,76.43016315870011L141.57348061512727,72.22148834901989L138.65052266813686,68.28033579181772L135.35533905932738,64.64466094067262L131.71966420818228,61.34947733186315L127.77851165098011,58.42651938487274L123.56983684129989,55.90393678258225L119.1341716182545,53.80602337443566L114.51423386272312,52.15298321338956L109.75451610080641,50.960735979838475L104.90085701647804,50.24076366639016L100.0,50.0L95.09914298352197,50.24076366639015L90.24548389919359,50.960735979838475L85.4857661372769,52.152983213389554L80.86582838174552,53.80602337443566L76.43016315870011,55.90393678258225L72.2214883490199,58.426519384872734L68.28033579181773,61.34947733186314L64.64466094067262,64.64466094067262L61.34947733186315,68.28033579181772L58.426519384872734,72.22148834901989L55.90393678258225,76.43016315870011L53.80602337443566,80.8658283817455L52.15298321338956,85.48576613727688L50.960735979838475,90.24548389919357L50.24076366639016,95.09914298352196L50.0,100.0L50.24076366639015,104.90085701647803L50.960735979838475,109.75451610080641L52.152983213389554,114.5142338627231L53.80602337443566,119.13417161825448L55.90393678258225,123.56983684129989L58.42651938487273,127.7785116509801L61.34947733186314,131.71966420818225L64.64466094067262,135.35533905932738L68.2803357918177,138.65052266813683L72.22148834901989,141.57348061512727L76.43016315870011,144.09606321741774L80.86582838174549,146.19397662556432L85.48576613727688,147.84701678661042L90.24548389919357,149.0392640201615L95.09914298352197,149.75923633360986L100.0,150.0L104.900857016478,149.75923633360986L109.75451610080641,149.0392640201615L114.5142338627231,147.84701678661045L119.1341716182545,146.19397662556435L123.56983684129987,144.09606321741774L127.7785116509801,141.57348061512727L131.71966420818228,138.65052266813683L135.35533905932738,135.35533905932738L138.65052266813683,131.7196642081823L141.57348061512727,127.77851165098011L144.09606321741774,123.5698368412999L146.19397662556432,119.13417161825453L147.84701678661042,114.51423386272313L149.0392640201615,109.75451610080644L149.75923633360986,104.90085701647803L150.0,100.0Z" />
  </g>
</svg>