<?xml version='1.0' encoding='utf-8'?>
<svg xmlns="http://www.w3.org/2000/svg" width="500" height="100">
  <rect width="500" height="100" fill="white" />
  <g fill="aqua" stroke="navy" stroke-width="5" stroke-linejoin="round">
    <path d="M249.94408836907635,33.33289300941193L248.19031360088212,30.968201475090634L246.21320343559643,28.786796564403577L244.03179852490936,26.80968639911789L241.66710699058808,25.055911630923642L239.14190210477994,23.542362069549352L236.4805029709527,22.283614024661397L233.70854031763386,21.291789928033737L230.85270966048384,20.576441587903087L227.94051420988683,20.144458199834094L225.0,20.0L222.05948579011317,20.14445819983409L219.14729033951616,20.576441587903087L216.29145968236614,21.291789928033733L213.5194970290473,22.283614024661397L210.85809789522006,23.54236206954935L208.33289300941195,25.05591163092364L205.96820147509064,26.809686399117886L203.78679656440357,28.786796564403573L201.80968639911788,30.968201475090634L200.05591163092365,33.33289300941193L198.54236206954934,35.85809789522006L197.2836140246614,38.5194970290473L196.29178992803372,41.291459682366124L195.57644158790308,44.14729033951614L195.1444581998341,47.05948579011317L195.0,50.0L195.1444581998341,52.940514209886814L195.57644158790308,55.85270966048385L196.29178992803372,58.70854031763386L197.2836140246614,61.48050297095269L198.54236206954934,64.14190210477993L200.05591163092365,66.66710699058805L201.80968639911788,69.03179852490936L203.78679656440357,71.21320343559643L205.96820147509064,73.19031360088209L208.33289300941192,74.94408836907635L210.85809789522006,76.45763793045064L213.5194970290473,77.7163859753386L216.29145968236614,78.70821007196626L219.14729033951613,79.42355841209691L222.0594857901132,79.85554180016591L225.0,80.0L227.9405142098868,79.85554180016591L230.85270966048384,79.42355841209691L233.70854031763386,78.70821007196626L236.4805029709527,77.7163859753386L239.14190210477992,76.45763793045066L241.66710699058805,74.94408836907637L244.03179852490936,73.1903136008821L246.21320343559643,71.21320343559643L248.1903136008821,69.03179852490938L249.94408836907635,66.66710699058807L250.0,66.57382406997218L250.05591163092365,66.66710699058805L251.80968639911788,69.03179852490936L253.78679656440357,71.21320343559643L255.96820147509064,73.19031360088209L258.3328930094119,74.94408836907635L260.85809789522006,76.45763793045064L263.5194970290473,77.7163859753386L266.2914596823661,78.70821007196626L269.14729033951613,79.42355841209691L272.0594857901132,79.85554180016591L275.0,80.0L277.9405142098868,79.85554180016591L280.85270966048387,79.42355841209691L283.70854031763383,78.70821007196626L286.4805029709527,77.7163859753386L289.14190210477994,76.45763793045066L291.6671069905881,74.94408836907637L294.0317985249094,73.1903136008821L296.2132034355964,71.21320343559643L298.1903136008821,69.03179852490938L299.9440883690764,66.66710699058807L301.45763793045063,64.14190210477994L302.7163859753386,61.48050297095271L303.7082100719663,58.708540317633876L304.4235584120969,55.85270966048386L304.8555418001659,52.940514209886814L305.0,50.0L304.8555418001659,47.05948579011318L304.4235584120969,44.147290339516154L303.7082100719663,41.29145968236613L302.7163859753386,38.51949702904731L301.45763793045063,35.85809789522007L299.9440883690764,33.33289300941193L298.1903136008821,30.968201475090634L296.2132034355964,28.786796564403577L294.0317985249094,26.80968639911789L291.6671069905881,25.055911630923642L289.14190210477994,23.542362069549352L286.48050297095267,22.283614024661397L283.7085403176339,21.291789928033737L280.85270966048387,20.576441587903087L277.9405142098868,20.144458199834094L275.0,20.0L272.0594857901132,20.14445819983409L269.14729033951613,20.576441587903087L266.2914596823661,21.291789928033733L263.51949702904733,22.283614024661397L260.85809789522006,23.54236206954935L258.3328930094119,25.05591163092364L255.96820147509064,26.809686399117886L253.78679656440357,28.786796564403573L251.80968639911788,30.968201475090634L250.05591163092365,33.33289300941193L250.0,33.426175930027824L249.94408836907635,33.33289300941193Z" />
  </g>
</svg>