<?xml version='1.0' encoding='utf-8'?>
<svg xmlns="http://www.w3.org/2000/svg" width="200" height="200" viewBox="-100 -100 200 200">
  <g fill-opacity="0.5" stroke="black">
    <path d="M-65.4,3.9L-65.6,4.2L-66.2,4.9L-67.2,6.3L-67.8,7.1L-68.6,8.5L-69.1,9.4L-69.8,10.9L-70.2,11.8L-70.8,13.4L-71,14.3L-71.5,15.9L-71.6,16.9L-71.9,18.6L-72,19.5L-72.1,21.2L-72.1,22.2L-72,23.9L-71.9,24.8L-71.6,26.5L-71.5,27.4L-71,29.1L-70.8,30L-70.2,31.6L-69.8,32.5L-69.1,34L-68.6,34.9L-67.8,36.3L-67.2,37.1L-66.2,38.5L-65.6,39.2L-64.5,40.5L-63.8,41.1L-62.6,42.3L-61.8,42.9L-60.5,43.9L-59.7,44.4L-58.2,45.3L-57.4,45.8L-55.8,46.5L-54.9,46.8L-53.4,47.4L-52.4,47.7L-50.8,48.1L-49.8,48.3L-48.2,48.5L-47.2,48.6L-45.5,48.7L-44.6,48.7L-42.9,48.6L-41.9,48.5L-41.8,48.5L-41.8,49.2L-41.7,51.3L-41.6,52.2L-41.3,54.2L-41.1,55.2L-40.6,57.2L-40.3,58.1L-39.6,60L-39.3,60.9L-38.4,62.8L-37.9,63.6L-36.9,65.4L-36.3,66.2L-35.1,67.8L-34.5,68.6L-33.1,70.1L-32.4,70.8L-30.9,72.1L-30.2,72.7L-28.6,74L-27.7,74.5L-26,75.5L-25.1,76L-23.3,76.9L-22.4,77.2L-20.5,77.9L-19.6,78.2L-17.6,78.7L-16.6,78.9L-14.6,79.2L-13.6,79.3L-11.6,79.4L-10.6,79.4L-8.6,79.3L-7.6,79.2L-5.6,78.9L-4.7,78.7L-2.7,78.2L-1.8,77.9L0.1,77.2L1.1,76.9L2.9,76L3.8,75.5L5.5,74.5L6.3,74L7.9,72.7L8.7,72.1L10,70.9L10.4,71.1L12.7,72.6L13.6,73L16.1,74.2L17,74.6L19.6,75.5L20.6,75.8L23.2,76.5L24.2,76.7L26.9,77.1L27.9,77.2L30.7,77.3L31.7,77.3L34.4,77.2L35.4,77.1L38.1,76.7L39.1,76.5L41.8,75.8L42.7,75.5L45.3,74.6L46.3,74.2L48.8,73L49.6,72.6L52,71.1L52.8,70.6L55,68.9L55.8,68.3L57.9,66.5L58.5,65.8L60.4,63.7L61,63L62.7,60.7L63.2,59.9L64.6,57.5L65.1,56.7L66.3,54.2L66.7,53.3L67.6,50.7L67.9,49.7L68.6,47L68.8,46.1L69.2,43.3L69.3,42.3L69.4,39.6L69.4,38.6L69.3,35.8L69.2,35.3L69.4,35.2L71.9,33.7L72.7,33.1L75.1,31.4L75.9,30.7L78,28.7L78.7,28L80.7,25.9L81.4,25.1L83.1,22.7L83.7,21.9L85.2,19.4L85.6,18.5L86.9,15.8L87.3,14.9L88.3,12.1L88.6,11.2L89.3,8.3L89.5,7.4L89.9,4.4L90,3.4L90.2,0.5L90.2,-0.5L90,-3.4L89.9,-4.4L89.5,-7.4L89.3,-8.3L88.6,-11.2L88.3,-12.1L87.3,-14.9L86.9,-15.8L85.6,-18.5L85.2,-19.4L83.7,-21.9L83.1,-22.7L81.4,-25.1L80.7,-25.9L78.7,-28L78,-28.7L75.9,-30.7L75.1,-31.4L72.7,-33.1L71.9,-33.7L69.8,-35L69.8,-35.8L70,-38.6L70,-39.6L69.8,-42.4L69.7,-43.4L69.3,-46.2L69.1,-47.1L68.4,-49.9L68.2,-50.8L67.2,-53.5L66.8,-54.4L65.6,-56.9L65.2,-57.8L63.7,-60.2L63.2,-61.1L61.5,-63.3L60.9,-64.1L59,-66.2L58.3,-66.9L56.2,-68.8L55.4,-69.4L53.1,-71.1L52.3,-71.6L49.9,-73.1L49,-73.5L46.5,-74.7L45.6,-75.1L42.9,-76.1L42,-76.4L39.2,-77L38.3,-77.2L35.5,-77.7L34.5,-77.7L31.7,-77.9L30.7,-77.9L27.9,-77.7L26.9,-77.7L24.1,-77.2L23.1,-77L20.4,-76.4L19.4,-76.1L16.8,-75.1L15.9,-74.7L13.3,-73.5L12.5,-73.1L10,-71.6L9.3,-71.1L8.5,-71.9L7.7,-72.5L6.1,-73.7L5.3,-74.2L3.6,-75.2L2.7,-75.7L0.9,-76.5L0,-76.9L-1.9,-77.6L-2.8,-77.9L-4.7,-78.4L-5.7,-78.6L-7.7,-78.8L-8.6,-78.9L-10.6,-79L-11.6,-79L-13.6,-78.9L-14.6,-78.8L-16.6,-78.6L-17.5,-78.4L-19.5,-77.9L-20.4,-77.6L-22.3,-76.9L-23.2,-76.5L-25,-75.7L-25.8,-75.2L-27.5,-74.2L-28.4,-73.7L-30,-72.5L-30.7,-71.9L-32.2,-70.5L-32.9,-69.8L-34.2,-68.3L-34.9,-67.6L-36,-66L-36.6,-65.2L-37.6,-63.5L-38.1,-62.6L-38.9,-60.8L-39.3,-59.9L-40,-58L-40.3,-57.1L-40.7,-55.1L-40.9,-54.2L-40.9,-54.1L-41.4,-54.2L-42.3,-54.3L-44.6,-54.4L-45.5,-54.4L-47.8,-54.3L-48.7,-54.2L-50.9,-53.8L-51.9,-53.7L-54.1,-53.1L-55,-52.8L-57.1,-52.1L-58,-51.7L-60,-50.7L-60.9,-50.3L-62.8,-49.1L-63.6,-48.6L-65.4,-47.3L-66.2,-46.6L-67.8,-45.2L-68.5,-44.5L-70,-42.8L-70.6,-42L-71.9,-40.3L-72.5,-39.4L-73.6,-37.5L-74.1,-36.7L-75.1,-34.7L-75.4,-33.7L-76.2,-31.7L-76.5,-30.7L-77,-28.6L-77.2,-27.6L-77.5,-25.4L-77.6,-24.4L-77.7,-22.2L-77.7,-21.2L-77.6,-19L-77.5,-18L-77.2,-15.8L-77,-14.8L-76.5,-12.7L-76.2,-11.7L-75.4,-9.6L-75.1,-8.7L-74.1,-6.7L-73.6,-5.9L-72.5,-3.9L-71.9,-3.1L-70.6,-1.3L-70,-0.6L-68.5,1.1L-67.8,1.8L-66.2,3.3L-65.4,3.9L-65.4,3.9ZM-46.9,14.9L-46.3,14.7L-45.4,14.4L-44.6,13.9L-43.7,13.4L-43,12.7L-42.3,12L-41.7,11.3L-41.1,10.5L-40.7,9.6L-40.3,8.7L-40,7.8L-39.8,6.8L-39.7,5.8L-39.7,4.8L-39.8,4L-40,-0.1L-40.1,-1L-40.3,-2L-40.6,-2.9L-40.9,-3.8L-41.4,-4.7L-41.9,-5.5L-42.6,-6.3L-43.3,-7L-44,-7.6L-44.8,-8.1L-45.7,-8.6L-46.6,-9L-47.5,-9.3L-48.7,-9.6L-49.9,-10L-51,-10.5L-52.1,-11.2L-53.1,-11.9L-54,-12.7L-54.9,-13.6L-55.6,-14.6L-56.2,-15.7L-56.8,-16.8L-57.2,-18L-57.5,-19.2L-57.7,-20.5L-57.7,-21.7L-57.7,-22.9L-57.5,-24.2L-57.2,-25.4L-56.8,-26.5L-56.2,-27.7L-55.6,-28.7L-54.9,-29.7L-54,-30.7L-53.1,-31.5L-52.1,-32.2L-51,-32.9L-49.9,-33.4L-48.7,-33.8L-47.5,-34.1L-46.3,-34.3L-45,-34.4L-43.8,-34.3L-42.6,-34.1L-41.4,-33.8L-40.2,-33.4L-39.1,-32.9L-38,-32.2L-36.7,-31.3L-35.9,-30.8L-35.1,-30.3L-34.2,-29.9L-33.2,-29.6L-32.3,-29.4L-31.3,-29.4L-30.3,-29.4L-29.3,-29.4L-28.4,-29.6L-27.4,-29.9L-26.5,-30.3L-25.7,-30.8L-24.8,-31.3L-23.6,-32.2L-22.8,-32.9L-22.1,-33.5L-21.5,-34.3L-21,-35.1L-20.5,-36L-20.1,-36.9L-19.8,-37.8L-19.7,-38.8L-19.6,-39.8L-19.6,-40.8L-19.7,-41.7L-19.8,-42.7L-20.1,-43.6L-20.5,-44.5L-20.6,-44.8L-21,-45.8L-21.2,-46.7L-21.4,-47.7L-21.4,-48.7L-21.4,-49.8L-21.2,-50.8L-21,-51.7L-20.6,-52.7L-20.2,-53.6L-19.7,-54.5L-19.1,-55.3L-18.4,-56L-17.7,-56.7L-16.8,-57.3L-16,-57.8L-15.1,-58.3L-14.1,-58.6L-13.1,-58.8L-12.1,-59L-11.1,-59L-10.1,-59L-9.1,-58.8L-8.1,-58.6L-7.2,-58.3L-6.3,-57.8L-5.4,-57.3L-4.6,-56.7L-3.8,-56L-3.2,-55.3L-2.6,-54.5L-2,-53.6L-1.6,-52.7L-1.6,-52.6L-1.2,-51.7L-0.7,-50.8L-0.2,-50L0.4,-49.2L1.1,-48.5L1.9,-47.9L2.7,-47.4L3.6,-46.9L4.5,-46.5L5.4,-46.2L6.4,-46L7.4,-45.9L8.3,-45.9L9.3,-46L10.3,-46.2L11.2,-46.5L12.1,-46.9L13,-47.4L13.8,-47.9L14.6,-48.5L15.3,-49.2L15.9,-50L16.6,-51L17.9,-52.4L19.3,-53.6L20.7,-54.7L22.3,-55.7L24,-56.5L25.7,-57.1L27.5,-57.5L29.3,-57.8L31.2,-57.9L33,-57.8L34.8,-57.5L36.6,-57.1L38.4,-56.5L40,-55.7L41.6,-54.7L43.1,-53.6L44.5,-52.4L45.7,-51L46.8,-49.5L47.8,-48L48.5,-46.3L49.2,-44.5L49.6,-42.8L49.9,-40.9L50,-39.1L49.9,-37.2L49.6,-35.4L49.2,-33.6L48.7,-32.4L48.4,-31.5L48.2,-30.5L48.1,-29.5L48.1,-28.5L48.2,-27.6L48.4,-26.6L48.7,-25.7L49.1,-24.8L49.6,-23.9L50.1,-23.1L50.7,-22.3L51.4,-21.6L52.2,-21L53,-20.4L53.9,-20L54.8,-19.6L55.7,-19.3L55.9,-19.3L57.7,-18.6L59.5,-17.8L61.2,-16.8L62.8,-15.6L64.3,-14.3L65.6,-12.8L66.8,-11.2L67.8,-9.5L68.6,-7.7L69.3,-5.9L69.8,-3.9L70.1,-2L70.2,-0L70.1,2L69.8,3.9L69.3,5.9L68.6,7.7L67.8,9.5L66.8,11.2L65.6,12.8L64.3,14.3L62.8,15.6L61.2,16.8L59.5,17.8L57.7,18.6L55.9,19.3L55.1,19.5L54.2,19.8L53.3,20.1L52.4,20.6L51.6,21.1L50.9,21.8L50.2,22.5L49.5,23.2L49,24L48.5,24.9L48.2,25.8L47.9,26.7L47.7,27.7L47.6,28.7L47.6,29.7L47.7,30.6L47.9,31.6L48.2,32.5L48.6,33.8L49,35.5L49.3,37.3L49.4,39.1L49.3,40.9L49,42.6L48.6,44.4L48,46.1L47.2,47.7L46.3,49.2L45.3,50.6L44.1,52L42.7,53.2L41.3,54.2L39.8,55.2L38.1,55.9L36.5,56.5L34.7,57L33,57.2L31.2,57.3L29.4,57.2L27.6,57L25.9,56.5L24.2,55.9L22.6,55.2L21.1,54.2L19.6,53.2L18.3,52L17.1,50.6L16.4,49.7L15.7,48.9L15,48.2L14.3,47.6L13.5,47L12.6,46.6L11.7,46.2L10.8,45.9L9.8,45.7L8.8,45.6L7.8,45.6L6.9,45.7L5.9,45.9L5,46.2L4.1,46.6L3.2,47L2.4,47.6L1.6,48.2L0.9,48.9L0.3,49.7L-0.2,50.5L-0.7,51.3L-1.1,52.2L-1.3,52.8L-1.7,53.8L-2.3,54.7L-2.9,55.5L-3.6,56.3L-4.4,57L-5.2,57.6L-6.1,58.1L-7.1,58.6L-8,58.9L-9,59.2L-10.1,59.3L-11.1,59.4L-12.2,59.3L-13.2,59.2L-14.2,58.9L-15.2,58.6L-16.1,58.1L-17,57.6L-17.9,57L-18.7,56.3L-19.4,55.5L-20,54.7L-20.5,53.8L-21,52.8L-21.3,51.8L-21.6,50.8L-21.7,49.8L-21.8,48.7L-21.7,47.7L-21.6,46.7L-21.3,45.7L-21,44.7L-20.8,44.3L-20.4,43.4L-20.1,42.5L-19.9,41.5L-19.8,40.5L-19.8,39.6L-19.9,38.6L-20.1,37.6L-20.4,36.7L-20.8,35.8L-21.3,34.9L-21.8,34.1L-22.4,33.3L-23.1,32.6L-23.9,32L-25.4,30.9L-28.4,28.1L-29.2,27.5L-30,27L-30.9,26.5L-31.8,26.1L-32.7,25.8L-33.7,25.6L-34.7,25.5L-35.6,25.5L-36.6,25.6L-37.6,25.8L-38.5,26.1L-39.4,26.5L-40.3,27L-41.1,27.5L-41.1,27.5L-41.7,27.9L-42.4,28.2L-43,28.4L-43.7,28.6L-44.4,28.7L-45,28.7L-45.7,28.7L-46.4,28.6L-47.1,28.4L-47.7,28.2L-48.4,27.9L-48.9,27.5L-49.5,27.1L-50,26.7L-50.5,26.1L-50.9,25.6L-51.2,25L-51.5,24.4L-51.8,23.7L-51.9,23.1L-52,22.4L-52.1,21.7L-52,21L-51.9,20.3L-51.8,19.7L-51.5,19L-51.2,18.4L-50.9,17.8L-50.5,17.2L-50,16.7L-49.5,16.3L-48.9,15.9L-48.4,15.5L-47.7,15.2L-46.9,14.9Z" />
  </g>
</svg>